<?xml version="1.0" encoding="UTF-8"?>
<svg id="Layer_2" data-name="Layer 2" xmlns="http://www.w3.org/2000/svg" viewBox="0 0 524.26 104.75">
  <defs>
    <style>
      .cls-1 {
        fill: #fff;
      }
    </style>
  </defs>
  <g id="Layer_1-2" data-name="Layer 1">
    <path d="m88.87,25.04c.81-1.45,1.21-2.45,5.9-2.43h.27c4.01.01,3.88,1.24,3.2,2.46l-30.01,55.19c-.81,1.45-1.21,2.45-5.9,2.43h-.27c-4.01-.01-3.88-1.24-3.2-2.46l30.01-55.19Z"/>
    <path class="cls-1" d="m62.72,6.91c0-3.01,1.77-3.92,3.94-3.92h3.68c2.17.02,3.92.94,3.92,3.95l-.16,52.15c0,3.01-1.77,3.92-3.94,3.92h-3.68c-2.17-.02-3.93-.94-3.92-3.95l.16-52.15Z"/>
    <path class="cls-1" d="m82.71,43.67c0-3.01,1.76-3.93,3.93-3.93h31.76c3.01,0,3.93,1.75,3.93,3.93v1.84c0,2.17-.92,3.93-3.93,3.93h-24.15v14.71h16.3c3.01,0,3.93,1.75,3.93,3.93v1.5c0,2.17-.92,3.93-3.93,3.93h-16.3v22.31c0,3.01-1.75,3.93-3.93,3.93h-3.68c-2.17,0-3.93-.92-3.93-3.93v-52.15Z"/>
    <g>
      <path d="m86.71,47.67c0-3.01,1.76-3.93,3.93-3.93h31.76c3.01,0,3.93,1.75,3.93,3.93v1.84c0,2.17-.92,3.93-3.93,3.93h-24.15v14.71h16.3c3.01,0,3.93,1.75,3.93,3.93v1.5c0,2.17-.92,3.93-3.93,3.93h-16.3v22.31c0,3.01-1.75,3.93-3.93,3.93h-3.68c-2.17,0-3.93-.92-3.93-3.93v-52.15Z"/>
      <path d="m129.41,73.74c0-15.96,7.35-31,25.57-31s25.57,15.04,25.57,31c0,18.72-9.03,31.01-25.57,31.01s-25.57-12.29-25.57-31.01Zm39.7,0c0-13.71-5.01-21.81-14.12-21.81s-14.04,8.11-14.04,21.81,4.85,21.65,14.04,21.65,14.12-8.02,14.12-21.65Z"/>
      <path d="m190.5,47.67c0-3.01,1.76-3.93,3.93-3.93h16.55c15.88,0,23.32,5.85,23.32,17.3,0,7.86-4.09,12.87-10.45,15.46l11.45,23.73c1.42,2.92-.42,3.51-2.26,3.51h-5.77c-2.34,0-3.76-1.42-4.76-3.59l-9.28-20.48h-11.2v20.14c0,3.01-1.75,3.93-3.93,3.93h-3.68c-2.17,0-3.93-.92-3.93-3.93v-52.15Zm20.56,22.65c4.35,0,11.62-.84,11.62-8.52s-6.02-8.36-11.03-8.36h-9.61v16.88h9.03Z"/>
      <path d="m245.74,47.67c0-3.01,1.76-3.93,3.93-3.93h30.92c3.01,0,3.93,1.75,3.93,3.93v1.84c0,2.17-.92,3.93-3.93,3.93h-23.32v14.71h15.54c3.01,0,3.93,1.75,3.93,3.93v1.5c0,2.17-.92,3.93-3.93,3.93h-15.54v16.55h24.24c3.01,0,3.93,1.75,3.93,3.93v1.84c0,2.17-.92,3.93-3.93,3.93h-31.84c-2.17,0-3.93-.92-3.93-3.93v-52.15Z"/>
      <path d="m294.2,47.67c0-3.01,1.75-3.93,3.93-3.93h7.69c2.34,0,3.43,1.34,4.6,3.43l20.64,36.69h.17v-36.19c0-3.01,1.75-3.93,3.93-3.93h2.92c2.17,0,3.93.92,3.93,3.93v52.15c0,3.01-1.76,3.93-3.93,3.93h-4.76c-2.34,0-3.43-1.34-4.6-3.34l-23.48-40.53h-.17v39.95c0,3.01-1.75,3.93-3.93,3.93h-3.01c-2.17,0-3.93-.92-3.93-3.93v-52.15Z"/>
      <path d="m354.62,87.7l3.93-1.25c2.92-.92,3.59.67,4.6,2.67,2.01,4.09,5.52,6.27,11.12,6.27,6.02,0,10.36-2.76,10.36-8.02,0-13.21-31.67-5.85-31.67-28.16,0-10.03,8.36-16.46,19.97-16.46,9.36,0,15.8,3.26,19.47,10.2,1,1.84,1.59,3.68-1.84,4.85l-3.51,1.25c-2.26.75-3.26-.58-4.51-2.51-2.17-3.09-5.18-4.6-9.44-4.6-5.18,0-9.03,2.59-9.03,7.19,0,12.2,31.42,5.35,31.42,27.41,0,11.95-9.03,18.22-21.9,18.22-10.28,0-17.13-3.59-21.06-12.29-.83-1.92-1.5-3.68,2.09-4.76Z"/>
      <path d="m405.43,47.67c0-3.01,1.75-3.93,3.93-3.93h3.68c2.17,0,3.93.92,3.93,3.93v52.15c0,3.01-1.75,3.93-3.93,3.93h-3.68c-2.17,0-3.93-.92-3.93-3.93v-52.15Z"/>
      <path d="m426.99,73.24c0-19.47,9.69-30.5,25.07-30.5,10.86,0,17.88,4.26,21.06,14.46.58,1.92,1.25,3.76-2.51,4.43l-2.76.5c-3.26.58-4.43-.33-5.52-2.84-2.26-5.1-5.77-7.02-10.45-7.02-8.27,0-13.37,7.52-13.37,20.98,0,14.79,4.43,21.81,13.12,21.81,4.85,0,8.77-2.17,11.28-7.69,1.25-2.76,1.84-3.59,5.43-2.76l3.09.75c3.59.92,3.18,2.59,2.42,4.51-4.43,11.7-12.62,14.88-22.56,14.88-15.88,0-24.32-11.62-24.32-31.51Z"/>
      <path d="m483.4,87.7l3.93-1.25c2.92-.92,3.59.67,4.6,2.67,2,4.09,5.52,6.27,11.11,6.27,6.02,0,10.36-2.76,10.36-8.02,0-13.21-31.67-5.85-31.67-28.16,0-10.03,8.36-16.46,19.97-16.46,9.36,0,15.8,3.26,19.47,10.2,1,1.84,1.59,3.68-1.84,4.85l-3.51,1.25c-2.26.75-3.26-.58-4.51-2.51-2.17-3.09-5.18-4.6-9.44-4.6-5.18,0-9.03,2.59-9.03,7.19,0,12.2,31.42,5.35,31.42,27.41,0,11.95-9.03,18.22-21.9,18.22-10.28,0-17.13-3.59-21.06-12.29-.84-1.92-1.5-3.68,2.09-4.76Z"/>
    </g>
    <g>
      <path d="m16.08,3.76c.92-2.92,2.76-3.76,5.1-3.76h7.77c2.34,0,4.18.84,5.1,3.76l15.8,52.48c1,3.43-.75,3.76-2.76,3.76h-5.1c-2.34,0-3.26-.84-4.09-3.76l-3.34-12.03H15.16l-3.34,12.03c-.84,2.92-1.76,3.76-4.1,3.76H3.12c-2.01,0-3.84-.33-2.84-3.76L16.08,3.76Zm15.79,30.84l-6.94-25.07h-.17l-6.94,25.07h14.04Z"/>
      <path d="m58.78,3.93c0-3.01,1.76-3.93,3.93-3.93h3.68c2.17,0,3.93.92,3.93,3.93v52.15c0,3.01-1.75,3.93-3.93,3.93h-3.68c-2.17,0-3.93-.92-3.93-3.93V3.93Z"/>
    </g>
  </g>
</svg>