<svg width="475" height="51" viewBox="0 0 475 51" fill="none" xmlns="http://www.w3.org/2000/svg">
<path d="M98.1751 0.980769H128.334V6.44506H104.067V22.6978H127.913V28.1621H104.067V50.0192H98.1751V0.980769Z" fill="#0C2729"/>
<path d="M138.665 20.0357C138.665 13.6841 140.185 8.75687 143.224 5.25412C146.263 1.75137 150.495 0 155.919 0C161.343 0 165.574 1.75137 168.614 5.25412C171.653 8.75687 173.173 13.6841 173.173 20.0357V30.9643C173.173 37.5027 171.653 42.4766 168.614 45.886C165.574 49.2953 161.343 51 155.919 51C150.495 51 146.263 49.2953 143.224 45.886C140.185 42.4766 138.665 37.5027 138.665 30.9643V20.0357ZM155.919 45.5357C159.706 45.5357 162.535 44.2514 164.405 41.6827C166.323 39.0673 167.281 35.3544 167.281 30.544V20.456C167.281 15.9725 166.323 12.353 164.405 9.59753C162.535 6.84203 159.706 5.46429 155.919 5.46429C152.132 5.46429 149.279 6.84203 147.362 9.59753C145.492 12.353 144.557 15.9725 144.557 20.456V30.544C144.557 35.3544 145.492 39.0673 147.362 41.6827C149.279 44.2514 152.132 45.5357 155.919 45.5357Z" fill="#0C2729"/>
<path d="M214.224 50.0192H208.332V33.6264C208.332 32.4121 208.052 31.478 207.491 30.8242C206.93 30.1703 205.948 29.8434 204.545 29.8434H189.255V50.0192H183.364V0.980769H200.898C203.423 0.980769 205.62 1.3544 207.491 2.10165C209.361 2.8022 210.904 3.75962 212.12 4.9739C213.382 6.18819 214.317 7.61264 214.925 9.24725C215.58 10.8352 215.907 12.5165 215.907 14.2912V16.3929C215.907 18.2143 215.393 20.0357 214.364 21.8571C213.382 23.6786 211.839 25.0797 209.735 26.0604V26.9011C211.138 27.1346 212.237 27.6951 213.032 28.5824C213.826 29.4698 214.224 30.7308 214.224 32.3654V50.0192ZM189.255 24.3791H200.197C203.516 24.3791 205.971 23.6786 207.561 22.2775C209.197 20.8297 210.016 18.728 210.016 15.9725V14.7115C210.016 12.2363 209.197 10.2514 207.561 8.75687C205.971 7.21566 203.516 6.44506 200.197 6.44506H189.255V24.3791Z" fill="#0C2729"/>
<path d="M226.94 0.980769H256.678V6.44506H232.831V22.6978H256.257V28.1621H232.831V44.5549H257.099V50.0192H226.94V0.980769Z" fill="#0C2729"/>
<path d="M294.363 47.4973H295.204V0.980769H301.096V50.0192H289.313L275.145 3.50275H274.304V50.0192H268.412V0.980769H280.195L294.363 47.4973Z" fill="#0C2729"/>
<path d="M339.271 15.1319C339.271 13.544 338.944 12.1429 338.289 10.9286C337.682 9.71428 336.84 8.71017 335.765 7.91621C334.689 7.12225 333.45 6.51511 332.047 6.09478C330.645 5.67445 329.172 5.46429 327.629 5.46429C326.273 5.46429 324.987 5.6511 323.771 6.02473C322.555 6.35165 321.457 6.84203 320.475 7.49588C319.54 8.14972 318.792 8.96703 318.23 9.9478C317.669 10.8819 317.389 11.9794 317.389 13.2404V13.6607C317.389 15.0151 317.669 16.1827 318.23 17.1635C318.792 18.0975 319.61 18.9148 320.685 19.6154C321.807 20.2692 323.187 20.8297 324.823 21.2967C326.46 21.717 328.377 22.0907 330.574 22.4176C335.718 23.2115 339.505 24.7294 341.937 26.9712C344.368 29.1662 345.584 32.1319 345.584 35.8681V36.7088C345.584 38.8104 345.21 40.7486 344.462 42.5234C343.76 44.2514 342.685 45.7459 341.235 47.0069C339.833 48.2679 338.079 49.2486 335.975 49.9492C333.871 50.6497 331.439 51 328.681 51C325.548 51 322.766 50.5563 320.335 49.669C317.95 48.7349 315.939 47.4739 314.303 45.886C312.713 44.2514 311.497 42.3599 310.656 40.2115C309.814 38.0165 309.393 35.6346 309.393 33.0659V30.9643H315.285V32.6456C315.285 36.9423 316.454 40.1648 318.792 42.3132C321.176 44.4615 324.473 45.5357 328.681 45.5357C332.328 45.5357 335.063 44.7418 336.887 43.1538C338.757 41.5192 339.692 39.3709 339.692 36.7088V36.2885C339.692 33.7198 338.734 31.7582 336.817 30.4038C334.946 29.0494 331.884 28.0687 327.629 27.4615C325.151 27.1346 322.906 26.6442 320.896 25.9904C318.932 25.2898 317.249 24.4025 315.846 23.3283C314.443 22.2074 313.368 20.8764 312.619 19.3352C311.871 17.794 311.497 15.9725 311.497 13.8709V13.0302C311.497 11.1154 311.895 9.36401 312.69 7.7761C313.484 6.18819 314.583 4.81044 315.986 3.64286C317.436 2.47527 319.142 1.58791 321.106 0.980769C323.117 0.326923 325.314 0 327.699 0C330.458 0 332.912 0.396978 335.063 1.19094C337.261 1.98489 339.108 3.05907 340.604 4.41346C342.1 5.72116 343.222 7.28571 343.971 9.10714C344.765 10.8819 345.163 12.75 345.163 14.7115V17.6538H339.271V15.1319Z" fill="#0C2729"/>
<path d="M355.074 0.980769H386.214V6.44506H373.59V44.5549H386.214V50.0192H355.074V44.5549H367.698V6.44506H355.074V0.980769Z" fill="#0C2729"/>
<path d="M413.869 45.5357C415.88 45.5357 417.587 45.2088 418.989 44.5549C420.439 43.8544 421.608 42.9437 422.496 41.8228C423.431 40.6552 424.109 39.3475 424.53 37.8997C424.998 36.4052 425.231 34.8407 425.231 33.206V32.3654H431.123V33.206C431.123 35.6813 430.749 38.0165 430.001 40.2115C429.253 42.3599 428.154 44.2514 426.704 45.886C425.255 47.4739 423.455 48.7349 421.304 49.669C419.153 50.5563 416.675 51 413.869 51C408.445 51 404.214 49.2953 401.175 45.886C398.135 42.4766 396.616 37.5027 396.616 30.9643V20.0357C396.616 13.6841 398.135 8.75687 401.175 5.25412C404.214 1.75137 408.445 0 413.869 0C416.675 0 419.153 0.467034 421.304 1.4011C423.455 2.28846 425.255 3.54945 426.704 5.18407C428.154 6.77198 429.253 8.66346 430.001 10.8585C430.749 13.0069 431.123 15.3187 431.123 17.794V18.6346H425.231V17.794C425.185 16.206 424.928 14.6648 424.46 13.1703C424.039 11.6758 423.361 10.3681 422.426 9.24725C421.538 8.07967 420.392 7.16896 418.989 6.51511C417.587 5.81456 415.88 5.46429 413.869 5.46429C410.082 5.46429 407.23 6.84203 405.313 9.59753C403.442 12.353 402.507 15.9725 402.507 20.456V30.544C402.507 35.3544 403.442 39.0673 405.313 41.6827C407.23 44.2514 410.082 45.5357 413.869 45.5357Z" fill="#0C2729"/>
<path d="M468.106 15.1319C468.106 13.544 467.779 12.1429 467.124 10.9286C466.517 9.71428 465.675 8.71017 464.6 7.91621C463.524 7.12225 462.285 6.51511 460.882 6.09478C459.48 5.67445 458.007 5.46429 456.464 5.46429C455.108 5.46429 453.822 5.6511 452.606 6.02473C451.39 6.35165 450.292 6.84203 449.31 7.49588C448.375 8.14972 447.626 8.96703 447.065 9.9478C446.504 10.8819 446.224 11.9794 446.224 13.2404V13.6607C446.224 15.0151 446.504 16.1827 447.065 17.1635C447.626 18.0975 448.445 18.9148 449.52 19.6154C450.642 20.2692 452.022 20.8297 453.658 21.2967C455.295 21.717 457.212 22.0907 459.409 22.4176C464.553 23.2115 468.34 24.7294 470.772 26.9712C473.203 29.1662 474.419 32.1319 474.419 35.8681V36.7088C474.419 38.8104 474.045 40.7486 473.296 42.5234C472.595 44.2514 471.52 45.7459 470.07 47.0069C468.667 48.2679 466.914 49.2486 464.81 49.9492C462.706 50.6497 460.274 51 457.516 51C454.383 51 451.601 50.5563 449.169 49.669C446.785 48.7349 444.774 47.4739 443.138 45.886C441.548 44.2514 440.332 42.3599 439.491 40.2115C438.649 38.0165 438.228 35.6346 438.228 33.0659V30.9643H444.12V32.6456C444.12 36.9423 445.289 40.1648 447.626 42.3132C450.011 44.4615 453.308 45.5357 457.516 45.5357C461.163 45.5357 463.898 44.7418 465.722 43.1538C467.592 41.5192 468.527 39.3709 468.527 36.7088V36.2885C468.527 33.7198 467.569 31.7582 465.652 30.4038C463.781 29.0494 460.719 28.0687 456.464 27.4615C453.985 27.1346 451.741 26.6442 449.731 25.9904C447.767 25.2898 446.083 24.4025 444.681 23.3283C443.278 22.2074 442.203 20.8764 441.454 19.3352C440.706 17.794 440.332 15.9725 440.332 13.8709V13.0302C440.332 11.1154 440.73 9.36401 441.525 7.7761C442.319 6.18819 443.418 4.81044 444.821 3.64286C446.27 2.47527 447.977 1.58791 449.941 0.980769C451.952 0.326923 454.149 0 456.534 0C459.293 0 461.747 0.396978 463.898 1.19094C466.096 1.98489 467.943 3.05907 469.439 4.41346C470.935 5.72116 472.057 7.28571 472.805 9.10714C473.6 10.8819 473.998 12.75 473.998 14.7115V17.6538H468.106V15.1319Z" fill="#0C2729"/>
<path d="M42.5615 0V5.66667H66.3959V0H42.5615Z" fill="#0C2729"/>
<path fill-rule="evenodd" clip-rule="evenodd" d="M57.3161 11.3334H51.6413V22.6667H55.6137V31.1667H59.5861V39.6667H65.2609V28.3334H61.2885V19.8334H57.3161V11.3334Z" fill="#0C2729"/>
<path d="M50.5063 45.3334V51H74.3407V45.3334H50.5063Z" fill="#0C2729"/>
<path d="M32.1765 38.3229H10.2877L6.56663 51H0L15.4681 0H26.9961L42.4642 51H35.8976L32.1765 38.3229ZM20.7943 2.62286L11.9659 32.64H30.4983L21.6699 2.62286H20.7943Z" fill="#0C2729"/>
</svg>
